<svg width="32" height="32" viewBox="0 0 32 32" fill="none" xmlns="http://www.w3.org/2000/svg">
<path d="M13.685 22.8225C13.915 23.7125 14.3625 24.5075 15.04 25.29C15.3896 25.6921 15.7681 26.0681 16.1725 26.415C16.84 26.9925 17.4325 27.6825 18.2175 28.105C18.5 28.255 18.755 28.5025 19.0675 28.5825C19.3775 28.665 19.535 28.4825 19.805 28.365C19.9832 28.2911 20.1695 28.2382 20.36 28.2075C21.015 28.0875 21.655 28.2825 22.24 28.5675C22.5875 28.7375 22.9175 28.94 23.2375 29.155C23.4525 29.3 23.68 29.5375 23.965 29.51C24.28 29.48 24.56 29.1775 24.8375 29.0475C25.68 28.655 26.54 29.1 27.3425 29.3625C27.61 29.45 27.83 29.595 28.08 29.3725C28.4525 29.0375 28.905 28.8125 29.3975 28.72C29.835 28.64 30.2825 28.6375 30.725 28.6425C30.95 28.645 31.68 28.7775 31.85 28.615C31.92 28.5475 31.9075 28.4375 31.895 28.3525C31.73 27.2475 30.095 26.4125 30.55 24.8875C30.595 24.735 30.5575 24.635 30.4525 24.5075C29.9725 23.9225 28.6875 23.04 28.81 22.1875C28.845 21.955 29.1325 21.8225 29.165 21.6325C29.185 21.5175 29.025 21.3725 28.95 21.2975C28.805 21.16 28.67 21.01 28.53 20.8675C28.365 20.695 28.2 20.5225 28.0425 20.345C27.7325 20.0025 27.435 19.6525 27.165 19.2775C27.015 19.0675 26.8225 18.83 26.75 18.5675C26.6575 18.22 26.8525 17.98 26.4925 17.78C26.025 17.5225 25.45 17.53 24.945 17.3925C24.335 17.2275 23.7325 17.025 23.12 16.8675C21.6325 16.485 20.0675 16.1825 18.5325 16.1125C17.4675 16.0625 16.175 16.2325 15.3025 16.8875C14.51 17.4825 14.04 18.425 13.7875 19.36C13.6525 19.87 13.5325 20.4325 13.515 20.96C13.48 21.635 13.5375 22.25 13.685 22.8225ZM3.48749 21.45C3.34999 21.5175 3.20749 21.5975 3.10249 21.6925C2.28249 22.22 1.52249 22.86 0.884993 23.6175C0.834993 23.685 0.742493 23.7375 0.754993 23.8325C0.772493 23.975 0.962493 24.0775 1.02499 24.21C1.08499 24.365 1.07249 24.5025 1.04749 24.6425C0.964993 25.0175 0.717493 25.3375 0.529993 25.6575C0.394993 25.89 0.182493 26.0925 0.107493 26.3575C0.0299933 26.68 0.434993 26.9975 0.509993 27.3425C0.742493 28.4725 -0.0175067 29.4075 0.134993 30.49C0.152493 30.6325 0.154993 30.76 0.332493 30.8275C0.634993 30.93 1.01249 30.7925 1.29499 30.7375C1.81249 30.6 2.43499 30.5 3.00499 30.4725C3.56749 30.4425 4.11499 30.6225 4.63499 30.6125C4.75749 30.6075 4.83999 30.58 4.93749 30.51C5.09499 30.3975 5.28249 30.3125 5.42749 30.1925C5.52999 30.105 5.57999 29.99 5.70499 29.9325C6.01749 29.7325 6.42499 29.63 6.78499 29.6325C6.89999 29.64 7.00999 29.62 7.11249 29.645C7.37499 29.6825 7.46749 29.775 7.67499 29.6225C7.84749 29.52 7.94749 29.3175 8.08249 29.18C8.55999 28.7525 9.14249 28.56 9.76499 28.65C10.1225 28.7125 10.84 27.855 11.0375 27.585C11.635 26.7475 11.9025 25.6875 11.7475 24.53C11.6025 23.2175 10.745 21.9875 9.58499 21.3825C7.56749 20.34 5.33249 20.4125 3.48749 21.45Z" fill="#757F3F"/>
<path d="M0.545005 10.315C0.545005 10.315 0.685005 8.64252 1.86751 7.63752C3.05001 6.63502 4.27501 5.11252 7.50751 4.15752C9.18501 3.66252 10.2525 4.10002 10.615 3.82002C10.615 3.82002 12.465 2.31002 13.3775 1.93252C14.2925 1.55752 16.9725 0.672519 20.495 1.44252C22.25 1.82502 23.41 3.03002 24.33 4.35252C25.255 5.68752 25.3125 6.89002 25.365 8.23002C25.365 8.23002 28.8275 10.4025 29.485 11.105C31.0125 12.735 30.765 14.035 29.3775 17.345C28.2775 19.965 28.475 21.86 26.2225 25.0325C23.9725 28.2 20.88 29.455 19.9625 29.4425C18.14 29.42 17.605 29.2675 17.0575 29.4775C16.5125 29.69 14.7225 30.81 12.7575 30.6175C10.79 30.425 7.7975 29.075 6.68001 26.6875C6.68001 26.6875 6.62001 26.1875 5.68251 25.7925C4.74251 25.39 0.342505 23.0175 0.277505 20.5C0.215005 17.9825 1.07751 17.06 0.980005 16.105C0.880005 15.1475 -0.109995 14.2875 0.545005 10.315Z" fill="#ED6C30"/>
<path d="M8.33251 6.57755C7.96251 6.72255 4.19251 8.34505 3.71501 10.25C3.29001 11.9525 3.62751 13.49 5.33751 14.815C5.53751 14.97 5.86001 15.2275 6.47501 15.4825C6.47501 15.4825 6.94251 15.72 6.74251 15.0025C6.54501 14.285 6.07251 13.3175 6.16751 11.7575C6.26251 10.1975 7.21001 8.75755 7.47001 8.37755C7.64751 8.12005 8.11001 7.45255 8.44001 7.10255C8.84501 6.67505 8.70001 6.43255 8.33251 6.57755ZM13.24 7.93755C13.24 7.93755 13.685 8.16505 13.2 8.40255C12.7175 8.64005 10.6175 9.60005 9.56751 11.765C9.56751 11.765 9.19751 12.295 9.02001 12.23C8.84251 12.165 8.87251 11.8475 8.98001 11.4325C8.98001 11.4325 9.51751 8.89005 10.3925 8.31505C11.2675 7.74005 12.4725 7.80005 13.24 7.93755ZM11.495 12.14C11.4475 12.2575 11.4125 12.5 11.7725 12.3975C12.1325 12.295 13.71 11.7375 14.5775 12.3C15.3625 12.8075 15.7725 13.505 15.7675 13.875C15.7625 14.245 16.115 14.35 16.3525 13.92C16.3525 13.92 17.53 11.4625 15.8375 10.3225C15.3975 10.025 14.4425 10.075 13.5375 10.4725C12.5525 10.905 11.69 11.6725 11.495 12.14ZM11.6825 13.5725C11.6825 13.5725 11.605 13.9625 12.2775 14.1425C12.74 14.2675 13.13 14.29 13.445 14.2175C14.1525 14.055 14.1225 14.26 14.0925 14.4C14.06 14.57 13.955 14.8 13.6975 15.0375C13.51 15.2075 13.16 15.375 12.565 15.4975C12.565 15.4975 10.8325 15.7375 10.3125 14.725C9.96251 14.045 10.4825 13.6225 11.335 13.36C11.555 13.2875 11.7425 13.3075 11.6825 13.5725ZM11.285 16.8475C11.285 16.8475 10.7175 16.4725 10.93 16.9525C11.1425 17.4325 11.6925 18.1275 13.3275 18.8175C14.205 19.1875 14.68 19.195 15.1225 19.1825C15.3125 19.1775 16.7475 19.4925 17.055 15.8825C17.1 15.3825 16.725 15.25 16.55 15.6425C16.465 15.825 15.7075 17.0125 14.92 17.365C14.01 17.77 12.2925 17.26 11.285 16.8475ZM18.7475 10.28C18.7475 10.28 18.645 9.74755 19.2175 10.0325C19.7875 10.3175 21.2775 11.1725 21.38 12.7125C21.4625 13.9325 20.9375 15.0475 20.2825 15.82C20.11 16.0225 19.54 16.625 19.07 16.7875C19.07 16.7875 18.7175 16.8425 18.84 16.4675C18.8925 16.305 19.1175 15.9375 19.3275 15.47C20.2975 13.3125 19.585 11.9125 19.3275 11.42C19.0675 10.9275 18.7475 10.28 18.7475 10.28ZM14.755 4.60755C14.755 4.60755 13.025 4.74255 12.93 5.32755C12.835 5.91505 14.1275 5.89755 14.4025 5.94755C14.675 6.00005 15.985 6.26255 16.63 7.22505C17.2775 8.19005 18.3775 7.64255 19.4425 7.89505C20.505 8.15005 21.4975 8.96005 21.785 9.12005C22.07 9.28005 22.59 9.09005 22.0775 8.29505C21.525 7.43755 20.7325 6.45755 19.4825 5.72505C18.3425 5.06005 16.825 4.59505 14.755 4.60755ZM23.1425 13.45C23.25 13.39 23.395 13.405 23.5375 13.7075C23.8225 14.31 24.295 16.035 23.2325 17.7575C22.59 18.8 21.6925 19.1725 20.735 19.655C19.26 20.395 17.8225 20.705 17.41 20.7425C17.41 20.7425 16.555 20.7975 17.245 20.28C17.58 20.03 19.9875 19.015 21.395 17.3275C22.0775 16.51 22.5 15.6475 22.6125 15.2075C22.955 13.8425 23.0325 13.51 23.1425 13.45ZM27.2175 15.0975C27.3425 17.5725 26.4875 19.5625 25.105 20.8825C25.105 20.8825 24.7225 21.0175 24.88 20.5C25.0375 19.985 25.6075 17.805 25.725 15.915C25.8225 14.38 25.4475 12.44 25.3025 11.765C25.285 11.685 25.3025 11.3575 25.425 11.3375C25.55 11.3175 25.99 11.5825 26.3775 12.2175C26.7975 12.91 27.1625 14.015 27.2175 15.0975ZM23.625 20.485C23.625 20.8275 23.6025 21.755 22.45 23.1525C21.295 24.5525 18.525 25.935 15.8875 25.8425C13.2475 25.75 11.2625 25.0425 11.0775 24.8375C10.8925 24.6325 11.0875 24.49 11.37 24.51C11.6525 24.5275 15.2675 24.69 17.4825 24.1425C19.1 23.7425 20.9175 22.815 22.2075 21.67C22.63 21.2975 22.995 20.9025 23.28 20.4925C23.3225 20.435 23.6225 19.9825 23.625 20.485ZM3.91251 17.45C3.91251 17.45 3.94251 17.17 4.16001 17.13C4.37751 17.0925 4.66751 17.4575 4.66751 17.4575C4.66751 17.4575 5.42501 18.7625 7.20251 19.99C9.11251 21.31 11.06 21.2825 11.06 21.2825C11.06 21.2825 11.365 21.34 11.1625 21.6525C10.9575 21.9625 10.25 22.455 9.10251 22.4575C7.95501 22.4625 6.39001 21.98 5.72751 21.3225C5.06251 20.665 4.14251 19.8875 3.91251 17.45Z" fill="#A03302"/>
</svg>
